<svg width="1323" height="109" viewBox="0 0 1323 109" fill="none" xmlns="http://www.w3.org/2000/svg">
<path d="M33 109H0L116.5 0L233 109H200L116.5 29.863L33 109Z" fill="black"/>
<rect x="777" y="1" width="23" height="108" fill="black"/>
<path d="M523 109H490L606.5 0L723 109H690L606.5 29.863L523 109Z" fill="black"/>
<path d="M1123 109H1090L1206.5 0L1323 109H1290L1206.5 29.863L1123 109Z" fill="black"/>
<path d="M866 109V87H1035C1038.3 86.2054 1039.85 85.5222 1041.55 83.5C1042.13 82.5312 1042.57 81.7093 1042.91 80.9061C1043.36 79.6959 1043.7 78.2472 1044 76.5C1043.7 73.1215 1042.91 70.9652 1041.32 69.3715C1040.32 68.5642 1039.5 67.9811 1038.69 67.5165C1037.65 66.9777 1036.43 66.491 1035 66H866V44H1035C1041.26 42.5028 1043.25 40.234 1044 33.5C1043.12 27.1162 1040.65 25.2457 1035 23H866V1H1035C1055.24 4.66758 1062.8 11.2145 1066 33.5C1065.17 43.3112 1063.37 47.9907 1058 55C1063.52 62.9686 1065.91 67.5616 1066 76.5C1063.13 98.3966 1054.68 105.307 1035 109H866Z" fill="black"/>
<rect x="866" y="87" width="169" height="22" fill="black"/>
<rect x="866" y="44" width="169" height="22" fill="black"/>
<rect x="866" y="1" width="169" height="22" fill="black"/>
<path d="M1033.5 98C1036.32 98 1039.12 97.4439 1041.73 96.3634C1044.34 95.2829 1046.71 93.6993 1048.7 91.7028C1050.7 89.7063 1052.28 87.3362 1053.36 84.7277C1054.44 82.1192 1055 79.3234 1055 76.5C1055 73.6766 1054.44 70.8808 1053.36 68.2723C1052.28 65.6638 1050.7 63.2937 1048.7 61.2972C1046.71 59.3007 1044.34 57.7171 1041.73 56.6366C1039.12 55.5561 1036.32 55 1033.5 55" stroke="black" stroke-width="22"/>
<path d="M1033.5 55C1036.32 55 1039.12 54.4439 1041.73 53.3634C1044.34 52.2829 1046.71 50.6993 1048.7 48.7028C1050.7 46.7063 1052.28 44.3362 1053.36 41.7277C1054.44 39.1192 1055 36.3234 1055 33.5C1055 30.6766 1054.44 27.8808 1053.36 25.2723C1052.28 22.6638 1050.7 20.2937 1048.7 18.2972C1046.71 16.3007 1044.34 14.7171 1041.73 13.6366C1039.12 12.5561 1036.32 12 1033.5 12" stroke="black" stroke-width="22"/>
<path d="M279 109H258V44H422H427.5V66H422L465 109H434L392 66H279V109Z" fill="black"/>
<path d="M415 23H427.5V1H258V23H415Z" fill="black"/>
<path d="M427.5 55C430.323 55 433.119 54.4439 435.728 53.3634C438.336 52.2829 440.706 50.6993 442.703 48.7028C444.699 46.7063 446.283 44.3362 447.363 41.7277C448.444 39.1192 449 36.3234 449 33.5C449 30.6766 448.444 27.8808 447.363 25.2723C446.283 22.6638 444.699 20.2937 442.703 18.2972C440.706 16.3007 438.336 14.7171 435.728 13.6366C433.119 12.5561 430.323 12 427.5 12" stroke="black" stroke-width="22"/>
</svg>
